<svg height="512" viewBox="0 0 463.996 447.506" width="512" xmlns="http://www.w3.org/2000/svg"><g id="Calque_2" data-name="Calque 2"><g id="_34-_Sleeping_Mask" data-name="34- Sleeping Mask"><path d="m463.84 296.363c-6.38 57.69-107.63 85.35-107.63 85.35l-5.93-50.07s31.37-.75 76.15-32.09c-15.72-6.77-49.55-18.03-98.96-17.02-49.87 1.01-53.28-22.5-51.08-36.22a40.506 40.506 0 0 1 2.75-9.57s2.22.02 6.18.13c25.59.73 123.74 5.21 162.65 31.73 10.87 7.397 17.11 16.52 15.87 27.76z" fill="#51518e"/><path d="m443.78 286.343c-5.96 4.92-11.76 9.3-17.35 13.21-15.72-6.77-49.55-18.03-98.96-17.02-49.87 1.01-53.28-22.5-51.08-36.22a23.512 23.512 0 0 1 5.13-6.6 23.957 23.957 0 0 1 3.8-2.84c25.59.73 123.74 5.21 162.65 31.73 4.76 9.61-4.19 17.74-4.19 17.74z" fill="#3e3e7a"/><path d="m66.64 429.6a79.325 79.325 0 0 0 28.834-11.668c11.978-7.712 42.186-19.649 92.213 8.248 66.7 37.195 178.557 33.261 182.662-73.079s-103.531-143.056-200.677-149.255-170.572 18.121-169.664 125.892c.749 88.431 32.051 106.062 66.632 99.862z" fill="#c5c5ff"/><path d="m80.082 401.412a67.374 67.374 0 0 0 23.375-8.747c9.711-5.781 34.2-14.728 74.758 6.183 54.075 27.881 144.756 24.932 148.085-54.779s-83.934-107.235-162.69-111.882-138.286 13.583-137.547 94.367c.607 66.286 25.984 79.505 54.019 74.858z" fill="#a4a4f7"/><g fill="#51518e"><path d="m145 69.27a14 14 0 0 0 -10.626-12.065c-43.932-10.616-87.771-3.991-89.617-3.7a14 14 0 1 0 4.309 27.666 235.189 235.189 0 0 1 40.241-1.789c-17.46 11.693-38.934 28.027-58.721 48.483a14.006 14.006 0 0 0 12.434 23.528c.388-.064 39.29-6.432 78.263 7.082a14 14 0 1 0 9.173-26.455 191.834 191.834 0 0 0 -52.011-9.891 361.623 361.623 0 0 1 58.833-38.758 14 14 0 0 0 7.722-14.101z"/><path d="m274.424 128.52a8.943 8.943 0 0 0 -6.788-7.706c-28.061-6.781-56.062-2.549-57.241-2.365a8.942 8.942 0 0 0 2.752 17.671 150.1 150.1 0 0 1 25.7-1.143 233.419 233.419 0 0 0 -37.507 30.968 8.946 8.946 0 0 0 7.94 15.03c.248-.041 25.1-4.109 49.989 4.523a8.942 8.942 0 1 0 5.86-16.9 122.5 122.5 0 0 0 -33.222-6.318 230.953 230.953 0 0 1 37.579-24.756 8.947 8.947 0 0 0 4.938-9.004z"/><path d="m311.712 14.809a11.47 11.47 0 0 0 -8.706-9.886c-36-8.7-71.916-3.27-73.428-3.034a11.471 11.471 0 0 0 3.53 22.668 192.646 192.646 0 0 1 32.972-1.466 299.4 299.4 0 0 0 -48.113 39.725 11.476 11.476 0 0 0 10.186 19.284c.317-.053 32.192-5.271 64.125 5.8a11.471 11.471 0 1 0 7.516-21.676 157.164 157.164 0 0 0 -42.616-8.1 296.282 296.282 0 0 1 48.2-31.757 11.47 11.47 0 0 0 6.334-11.558z"/></g></g></g></svg>